<?xml version="1.0" encoding="utf-8"?>
<!-- Generator: Adobe Illustrator 24.2.0, SVG Export Plug-In . SVG Version: 6.00 Build 0)  -->
<svg version="1.1" id="Lager_1" xmlns="http://www.w3.org/2000/svg" xmlns:xlink="http://www.w3.org/1999/xlink" x="0px" y="0px"
	 viewBox="0 0 172 60" style="enable-background:new 0 0 172 60;" xml:space="preserve">
<style type="text/css">
	.st0{fill:#FFFFFF;}
	.st1{fill:#020203;}
</style>
<g>
	<path class="st0" d="M86.1,33.4c0,2.6-0.8,4.6-2.3,6s-3.7,2.1-6.6,2.1c-2,0-3.7-0.4-5.2-1.1c-1.5-0.7-2.4-2-2.4-2
		c-0.4-0.6-0.4-1.5,0.1-2l1.6-1.8c0.5-0.5,1.2-0.5,1.6,0.1c0,0,0.3,0.6,1.3,1.2c0.9,0.6,2,0.9,3.1,0.9c1.1,0,2-0.3,2.5-0.8
		c0.6-0.5,0.9-1.3,0.9-2.3c0-0.9-0.4-1.7-1.2-2.4s-2.1-1.6-4.1-2.7c-2.1-1.2-3.7-2.4-4.5-3.6c-0.9-1.2-1.3-2.7-1.3-4.3
		c0-2.3,0.8-4.2,2.3-5.6s3.6-2.1,6.2-2.1c1.6,0,3,0.3,4.2,0.9c1.2,0.6,2.2,1.7,2.2,1.7c0.5,0.5,0.5,1.4,0,2L83,19.3
		c-0.5,0.5-1.2,0.5-1.7-0.1c0,0-0.1-0.2-0.9-0.6c-0.8-0.5-1.6-0.7-2.4-0.7c-0.9,0-1.7,0.2-2.2,0.7c-0.6,0.5-0.8,1.1-0.8,1.8
		c0,1.4,2.8,3.5,2.8,3.5c0.6,0.4,1.3,0.9,1.5,1c0.2,0.1,1.2,0.7,1.8,1.1c0,0,2.8,1.8,3.7,3C85.6,30.2,86.1,31.7,86.1,33.4z"/>
	<path class="st0" d="M94.4,39.6c0,0.7-0.6,1.3-1.3,1.3h-2.7c-0.7,0-1.3-0.6-1.3-1.3V15c0-0.7,0.6-1.3,1.3-1.3h2.7
		c0.7,0,1.3,0.6,1.3,1.3V39.6z"/>
	<path class="st0" d="M121.8,39.6c0,0.7-0.6,1.3-1.3,1.3h-2.6c-0.7,0-1.7-0.5-2.1-1.1l-11.2-16.2c-0.4-0.6-0.8-0.5-0.8,0.2v15.7
		c0,0.7-0.6,1.3-1.3,1.3H100c-0.7,0-1.3-0.6-1.3-1.3V15c0-0.7,0.6-1.3,1.3-1.3h2.6c0.7,0,1.7,0.5,2.1,1.1l11.1,16.1
		c0.4,0.6,0.8,0.5,0.8-0.2V15c0-0.7,0.6-1.3,1.3-1.3h2.6c0.7,0,1.3,0.6,1.3,1.3L121.8,39.6L121.8,39.6z"/>
	<path class="st0" d="M145.7,29c0,0.7-0.1,1.9-0.2,2.6c0,0-0.7,5.1-2.4,7c-1.7,1.9-4.2,2.9-7.4,2.9c-3.2,0-5.6-1-7.3-3
		c-1.7-2-2.4-6.9-2.4-6.9c-0.1-0.7-0.2-1.9-0.2-2.6V15c0-0.7,0.6-1.3,1.3-1.3h2.8c0.7,0,1.3,0.6,1.3,1.3v14.9c0,0.7,0.1,1.9,0.2,2.6
		c0,0,0.2,1.8,1,2.7c0.8,0.9,1.9,1.4,3.3,1.4c1.5,0,2.6-0.4,3.4-1.3c0.7-0.9,0.9-2.7,0.9-2.7c0.1-0.7,0.2-1.9,0.2-2.6V15
		c0-0.7,0.6-1.3,1.3-1.3h2.8c0.7,0,1.3,0.6,1.3,1.3L145.7,29L145.7,29L145.7,29z"/>
	<path class="st0" d="M165.4,33.4c0,2.6-0.8,4.6-2.3,6s-3.7,2.1-6.6,2.1c-2,0-3.7-0.4-5.2-1.1s-2.4-2-2.4-2c-0.4-0.6-0.4-1.5,0.1-2
		l1.6-1.8c0.5-0.5,1.2-0.5,1.6,0.1c0,0,0.3,0.6,1.3,1.2c0.9,0.6,2,0.9,3.1,0.9c1.1,0,2-0.3,2.5-0.8c0.6-0.5,0.9-1.3,0.9-2.3
		c0-0.9-0.4-1.7-1.2-2.4c-0.8-0.7-2.1-1.6-4.1-2.7c-2.1-1.2-3.7-2.4-4.5-3.6s-1.3-2.7-1.3-4.3c0-2.3,0.8-4.2,2.3-5.6
		s3.6-2.1,6.2-2.1c1.6,0,3,0.3,4.2,0.9c1.2,0.6,2.2,1.7,2.2,1.7c0.5,0.5,0.5,1.4,0,2l-1.5,1.6c-0.5,0.5-1.2,0.5-1.7-0.1
		c0,0-0.1-0.2-0.9-0.6c-0.8-0.5-1.6-0.7-2.4-0.7c-0.9,0-1.7,0.2-2.2,0.7c-0.6,0.5-0.8,1.1-0.8,1.8c0,1.4,2.8,3.5,2.8,3.5
		c0.6,0.4,1.3,0.9,1.5,1c0.2,0.1,1.2,0.7,1.8,1.1c0,0,2.8,1.8,3.7,3C164.9,30.2,165.4,31.7,165.4,33.4z"/>
	<path class="st0" d="M29.6,59.1c16.3,0,29.5-13.2,29.5-29.5S45.9,0,29.7,0S0.2,13.3,0.2,29.6S13.4,59.1,29.6,59.1z"/>
	<path class="st1" d="M47.5,21.9v15.3c0,0.5-0.4,1-1,1s-1-0.4-1-1V21.9c0-1.8-1.5-3.3-3.3-3.3s-3.3,1.5-3.3,3.3v15.3
		c0,2.9-2.3,5.2-5.2,5.2s-5.2-2.3-5.2-5.2V21.9c0-1.8-1.5-3.3-3.3-3.3s-3.3,1.5-3.3,3.3v15.3c0,2.9-2.3,5.2-5.2,5.2
		s-5.2-2.3-5.2-5.2V21.9c0-0.5,0.4-1,1-1s1,0.4,1,1v15.3c0,1.8,1.5,3.3,3.3,3.3s3.3-1.5,3.3-3.3V21.9c0-2.9,2.3-5.2,5.2-5.2
		s5.2,2.3,5.2,5.2v15.3c0,1.8,1.5,3.3,3.3,3.3s3.3-1.5,3.3-3.3V21.9c0-2.9,2.3-5.2,5.2-5.2S47.5,19.1,47.5,21.9z"/>
	<path class="st0" d="M73.8,51.8c0,0.6-0.2,1-0.6,1.3c-0.4,0.3-1,0.5-1.7,0.5c-0.8,0-1.3-0.1-1.8-0.3v-0.7c0.3,0.1,0.6,0.2,0.9,0.3
		c0.3,0.1,0.6,0.1,0.9,0.1c0.5,0,0.9-0.1,1.1-0.3s0.4-0.5,0.4-0.8c0-0.2-0.1-0.4-0.1-0.5s-0.2-0.3-0.4-0.4c-0.2-0.1-0.5-0.3-0.9-0.4
		c-0.6-0.2-1-0.5-1.3-0.8c-0.2-0.3-0.4-0.7-0.4-1.2c0-0.5,0.2-0.9,0.6-1.2c0.4-0.3,0.9-0.4,1.5-0.4c0.6,0,1.2,0.1,1.8,0.3L73.4,48
		c-0.5-0.2-1.1-0.3-1.6-0.3c-0.4,0-0.7,0.1-0.9,0.2c-0.2,0.2-0.3,0.4-0.3,0.7c0,0.2,0,0.4,0.1,0.5s0.2,0.3,0.4,0.4
		c0.2,0.1,0.5,0.2,0.9,0.4c0.7,0.2,1.1,0.5,1.4,0.8C73.6,51,73.8,51.4,73.8,51.8z M81.5,53.5h-0.9l-2.3-3.1L77.6,51v2.5h-0.8v-6.4
		h0.8v3.2l2.9-3.2h0.9l-2.6,2.8L81.5,53.5z M88.2,53.5l-0.8-2h-2.6l-0.8,2h-0.8l2.5-6.5h0.6l2.5,6.5H88.2z M87.2,50.8l-0.8-2
		c-0.1-0.2-0.2-0.6-0.3-0.9c-0.1,0.3-0.2,0.6-0.3,0.9l-0.8,2H87.2z M93.7,53.5h-0.8v-5.8h-2v-0.7h4.8v0.7h-2L93.7,53.5L93.7,53.5z
		 M102.1,53.5h-3.6v-6.4h3.6v0.7h-2.8v2.1h2.7v0.7h-2.7v2.4h2.8V53.5z M105.3,47.1h1.8c0.8,0,1.5,0.1,1.8,0.4s0.6,0.7,0.6,1.2
		c0,0.4-0.1,0.7-0.3,0.9c-0.2,0.2-0.5,0.4-0.9,0.5v0c1,0.2,1.5,0.7,1.5,1.5c0,0.6-0.2,1-0.6,1.3s-0.9,0.5-1.6,0.5h-2.2V47.1z
		 M106,49.8h1.2c0.5,0,0.9-0.1,1.1-0.2c0.2-0.2,0.3-0.5,0.3-0.8c0-0.4-0.1-0.6-0.4-0.8s-0.7-0.2-1.2-0.2H106V49.8z M106,50.5v2.4
		h1.3c0.5,0,0.9-0.1,1.2-0.3c0.3-0.2,0.4-0.5,0.4-0.9c0-0.4-0.1-0.7-0.4-0.9c-0.3-0.2-0.7-0.3-1.2-0.3C107.3,50.5,106,50.5,106,50.5
		z M118.5,50.3c0,1-0.3,1.8-0.8,2.4s-1.2,0.9-2.2,0.9c-0.9,0-1.7-0.3-2.2-0.9c-0.5-0.6-0.8-1.4-0.8-2.5s0.3-1.9,0.8-2.4
		c0.5-0.6,1.2-0.9,2.2-0.9c0.9,0,1.6,0.3,2.2,0.9C118.2,48.5,118.5,49.2,118.5,50.3z M113.4,50.3c0,0.9,0.2,1.5,0.6,2
		s0.9,0.7,1.6,0.7s1.2-0.2,1.6-0.7c0.4-0.5,0.5-1.1,0.5-2c0-0.9-0.2-1.5-0.5-2c-0.4-0.5-0.9-0.7-1.6-0.7c-0.7,0-1.2,0.2-1.6,0.7
		C113.6,48.8,113.4,49.4,113.4,50.3z M125.8,53.5l-0.8-2h-2.6l-0.8,2h-0.8l2.5-6.5h0.6l2.5,6.5H125.8z M124.7,50.8l-0.7-2
		c-0.1-0.2-0.2-0.6-0.3-0.9c-0.1,0.3-0.2,0.6-0.3,0.9l-0.8,2H124.7z M130,50.8v2.7h-0.8v-6.4h1.8c0.8,0,1.4,0.2,1.7,0.5
		c0.4,0.3,0.6,0.8,0.6,1.4c0,0.8-0.4,1.4-1.3,1.7l1.7,2.9h-0.9l-1.6-2.7C131.3,50.8,130,50.8,130,50.8z M130,50.2h1
		c0.5,0,0.9-0.1,1.2-0.3c0.2-0.2,0.4-0.5,0.4-0.9c0-0.4-0.1-0.7-0.4-0.9s-0.6-0.3-1.2-0.3h-1V50.2z M141.7,50.2
		c0,1.1-0.3,1.9-0.9,2.4c-0.6,0.6-1.4,0.8-2.5,0.8h-1.8v-6.4h2c1,0,1.8,0.3,2.3,0.8C141.4,48.5,141.7,49.2,141.7,50.2z M140.9,50.3
		c0-0.8-0.2-1.5-0.6-1.9s-1-0.6-1.9-0.6h-1.1v5.1h0.9c0.9,0,1.6-0.2,2-0.7C140.7,51.8,140.9,51.1,140.9,50.3z M148.6,51.8
		c0,0.6-0.2,1-0.6,1.3c-0.4,0.3-1,0.5-1.7,0.5c-0.8,0-1.4-0.1-1.8-0.3v-0.7c0.3,0.1,0.6,0.2,0.9,0.3c0.3,0.1,0.6,0.1,0.9,0.1
		c0.5,0,0.9-0.1,1.1-0.3s0.4-0.5,0.4-0.8c0-0.2-0.1-0.4-0.1-0.5s-0.2-0.3-0.4-0.4c-0.2-0.1-0.5-0.3-0.9-0.4c-0.6-0.2-1-0.5-1.3-0.8
		c-0.2-0.3-0.4-0.7-0.4-1.2c0-0.5,0.2-0.9,0.6-1.2s0.9-0.4,1.5-0.4c0.6,0,1.2,0.1,1.8,0.3l-0.2,0.7c-0.5-0.2-1.1-0.3-1.6-0.3
		c-0.4,0-0.7,0.1-0.9,0.2c-0.2,0.2-0.3,0.4-0.3,0.7c0,0.2,0,0.4,0.1,0.5s0.2,0.3,0.4,0.4c0.2,0.1,0.5,0.2,0.9,0.4
		c0.7,0.2,1.1,0.5,1.4,0.8C148.5,51,148.6,51.4,148.6,51.8z"/>
</g>
</svg>
